<svg width="341" height="394" viewBox="0 0 341 394" fill="none" xmlns="http://www.w3.org/2000/svg">
<path d="M191.229 225.743C199.153 239.95 212.839 253.162 236.718 258.215C212.84 258.208 194.763 260.104 176.074 247.732C183.128 241.538 188.318 234.072 191.229 225.93L191.229 225.743Z" fill="#D9D9D9"/>
<path d="M185.813 220.804C184.326 225.04 182.227 229.11 179.563 232.926C178.583 234.399 177.529 235.871 176.362 237.343L176.362 237.342C174.676 239.706 172.638 241.884 170.299 243.826C163.143 250.089 169.775 255.166 180.926 259.211C173.958 259.46 157.157 259.204 151.844 254.472C150.262 254.994 148.642 255.464 146.985 255.88C133.492 259.265 119.263 260.117 105.322 258.376C175.271 244.329 180.638 169.05 129.18 167.752C97.8765 166.961 78.2551 185.031 67.7891 207.773L67.7903 207.773C67.5722 203.691 67.912 199.603 68.8036 195.587C71.2988 186.064 77.1604 177.382 85.6355 170.654C91.9491 165.381 99.5827 161.328 107.994 158.786C116.404 156.243 125.386 155.272 134.301 155.944C171.745 158.773 196.541 191.391 185.813 220.93L185.813 220.804Z" fill="#D9D9D9"/>
<path d="M175.484 166.396C184.657 160.426 195.707 156.804 207.298 155.966C216.238 155.292 225.246 156.268 233.685 158.826C242.124 161.384 249.785 165.461 256.123 170.768C264.634 177.582 270.496 186.373 272.946 196C273.946 200.032 274.339 204.153 274.12 208.267C261.907 180.104 221.43 152.375 184.556 176.11C181.961 172.66 178.878 169.483 175.371 166.648L175.484 166.396Z" fill="#D9D9D9"/>
<path d="M135.847 149.877C132.627 143.361 127.3 137.709 120.454 133.544C113.608 129.379 105.509 126.864 97.0515 126.275C88.2853 125.523 79.4505 126.967 71.6853 130.42C70.8127 130.829 69.9414 131.238 69.0689 131.71C91.3264 129.356 114.571 133.546 124.472 149.905L124.472 149.904C128.254 149.585 132.065 149.586 135.847 149.907L135.847 149.877Z" fill="#D9D9D9"/>
<path d="M95.5023 121.468C91.4066 116.721 88.6766 111.25 87.5266 105.479C85.9284 98.338 86.8947 90.963 90.3032 84.2809C89.7043 96.8433 97.8328 117.008 114.719 125.115C109.784 123.172 104.474 121.979 99.0374 121.594L95.277 121.593L95.5023 121.468Z" fill="#D9D9D9"/>
<path d="M195.164 151.381C195.163 150.35 195.389 149.32 195.579 148.259C197.623 137.151 205.524 127.364 217.153 121.538C233.063 113.643 255.44 117.115 270.068 122.207C234.652 117.265 208.387 131.558 205.33 149.697L195.126 151.318L195.164 151.381Z" fill="#D9D9D9"/>
<path d="M168.365 160.608C184.473 135.562 160.799 96.571 193.742 72.1556C152.455 85.9228 173.193 144.17 154.927 154.091C159.721 155.769 164.237 157.948 168.365 160.576L168.365 160.608Z" fill="#D9D9D9"/>
<path d="M161.687 103.145C158.006 98.5935 153.186 94.7688 147.565 91.9353C140.157 88.0266 131.535 86.0475 122.789 86.2465C119.125 86.3514 115.494 86.8488 111.983 87.7275C131.94 90.3529 155.814 101.849 159.245 119.779C159.809 114.414 160.522 108.731 161.726 103.113L161.687 103.145Z" fill="#D9D9D9"/>
<path d="M202.463 124.104C201.097 119.523 200.881 114.751 201.829 110.095C202.965 103.67 206.349 97.6831 211.54 92.91C213.732 90.9093 216.226 89.1638 218.957 87.7175C212.14 96.9424 209.081 107.813 210.25 118.66C207.406 120.201 204.811 122.052 202.536 124.167L202.463 124.104Z" fill="#D9D9D9"/>
<path d="M122.543 48.3232C130.138 50.2531 136.518 54.572 140.314 60.3536C144.11 66.1352 145.018 72.9174 142.844 79.2447C142.503 78.679 142.199 78.1133 141.857 77.5159L141.857 77.517C138.618 71.9072 134.81 66.5356 130.474 61.4587C132.703 67.4169 135.534 73.2085 138.938 78.7732L139.886 80.4069C132.568 77.938 126.684 73.2175 123.472 67.2365C120.26 61.2545 119.968 54.4767 122.657 48.3234L122.543 48.3232Z" fill="#D9D9D9"/>
<path d="M218.437 48.8346C210.91 50.7787 204.599 55.0388 200.835 60.717C197.071 66.3959 196.147 73.0498 198.259 79.2772C198.562 78.7202 198.901 78.1633 199.242 77.6063L199.242 77.6074C202.46 72.0711 206.253 66.772 210.578 61.767C208.38 67.6349 205.575 73.3383 202.19 78.8149C201.851 79.3406 201.548 79.8976 201.208 80.4233C208.551 78.045 214.465 73.409 217.685 67.5053C220.905 61.6024 221.175 54.9012 218.436 48.8348L218.437 48.8346Z" fill="#D9D9D9"/>
<path d="M49.3774 102.161C56.4992 100.072 64.3639 100.395 71.1895 103.055C77.3348 105.478 82.1576 109.646 84.7363 114.761L82.8777 113.994L82.8765 113.994C76.7821 111.519 70.4355 109.467 63.9079 107.863C69.516 111.044 75.4427 113.844 81.6249 116.231L83.4465 116.936L83.4465 116.935C76.4962 118.556 69.0338 117.919 62.6552 115.158C56.2752 112.398 51.4842 107.734 49.3021 102.161L49.3774 102.161Z" fill="#D9D9D9"/>
<path d="M291.184 97.5624C283.514 95.17 275.012 95.5306 267.671 98.5578C261.076 101.25 255.872 105.865 253.032 111.544L255.006 110.73C261.611 107.942 268.493 105.641 275.572 103.85C269.532 107.429 263.136 110.569 256.46 113.235C255.827 113.516 255.156 113.798 254.523 114.017L254.522 114.017C262.001 115.772 269.998 115.025 276.833 111.933C283.669 108.843 288.811 103.647 291.184 97.4372L291.184 97.5624Z" fill="#D9D9D9"/>
<path d="M69.0755 156.47C75.9788 159.618 84.0965 160.441 91.7191 158.768C99.3431 157.094 105.879 153.054 109.955 147.496L107.801 148.055C100.711 149.923 93.4451 151.305 86.077 152.184C92.762 149.448 99.7129 147.173 106.856 145.383L108.934 144.855L108.934 144.854C101.756 142.172 93.5952 141.879 86.1634 144.039C78.7326 146.198 72.6076 150.643 69.0758 156.439L69.0755 156.47Z" fill="#D9D9D9"/>
<path d="M253.042 149.326C247.655 151.862 241.308 152.542 235.334 151.223C229.361 149.904 224.228 146.688 221.016 142.253L222.719 142.699L222.72 142.699C228.323 144.151 234.058 145.216 239.868 145.886C234.601 143.701 229.116 141.91 223.476 140.535L221.848 140.121C227.124 138.054 233.126 137.704 238.692 139.138C244.924 140.753 250.105 144.432 253.041 149.326L253.042 149.326Z" fill="#D9D9D9"/>
<path d="M333.432 111.929C324.349 107.468 313.516 106.083 303.22 108.067C292.923 110.05 283.968 115.246 278.245 122.561L281.141 121.88C290.86 119.575 300.804 117.963 310.861 117.061C301.71 120.506 292.222 123.309 282.497 125.44L279.675 126.058C288.627 129.715 298.903 130.521 308.531 128.325C319.195 125.848 328.18 119.922 333.432 111.899L333.432 111.929Z" fill="#D9D9D9"/>
<path d="M307.527 63.3322C297.046 62.0191 286.361 64.1301 277.722 69.221C269.083 74.3119 263.16 81.9846 261.202 90.6269L263.615 89.0635C271.521 83.893 279.944 79.2908 288.794 75.3067C281.847 81.4112 274.282 87.0084 266.179 92.0353C265.426 92.536 264.596 93.0042 263.841 93.4734L263.841 93.4744C274.396 94.1105 284.832 91.3182 292.948 85.6886C301.064 80.0591 306.224 72.0306 307.338 63.3007L307.527 63.3322Z" fill="#D9D9D9"/>
<path d="M260.114 25.5144C249.793 27.6796 240.898 33.0569 235.301 40.5146C229.705 47.9722 227.845 56.9287 230.111 65.4963L231.588 63.3136C236.476 56.0322 242.102 49.1056 248.408 42.6055C244.912 50.4333 240.603 57.9982 235.529 65.2174L234.09 67.3067C244.152 64.4835 252.487 58.5555 257.34 50.7717C262.195 42.9878 263.189 33.955 260.114 25.5769L260.114 25.5144Z" fill="#D9D9D9"/>
<path d="M201.848 6.08864C193.22 11.2808 187.361 19.0478 185.503 27.753C183.646 36.4582 185.936 45.4235 191.89 52.7599C191.89 51.9117 192.155 51.0625 192.306 50.2451L192.306 50.2461C193.559 41.9069 195.674 33.6746 198.631 25.6376C198.885 34.0476 198.266 42.4598 196.78 50.7813C196.78 51.5671 196.515 52.4152 196.363 53.2009L196.363 53.202C204.458 47.4623 209.551 39.343 210.574 30.5517C211.597 21.7604 208.469 12.98 201.848 6.05787L201.848 6.08864Z" fill="#D9D9D9"/>
<path d="M132.507 7.50005C127.131 15.1079 125.586 24.1235 128.196 32.6456C130.808 41.1691 137.37 48.5347 146.505 53.191C146.198 52.4097 145.929 51.5968 145.622 50.7849C142.669 42.7966 140.539 34.6222 139.256 26.3455C143.658 33.8876 147.275 41.7183 150.067 49.7546L150.872 52.0985C155.49 44.1793 156.16 35.1054 152.742 26.7875C149.324 18.4693 142.085 11.5554 132.546 7.49998L132.507 7.50005Z" fill="#D9D9D9"/>
<path d="M75.6093 28.383C74.061 37.1005 76.6888 45.972 82.9406 53.1344C89.1923 60.2968 98.581 65.192 109.133 66.7894C108.521 66.0995 107.873 65.4728 107.224 64.7829C100.879 58.2254 95.2211 51.2408 90.3088 43.9022C97.7567 49.6058 104.591 55.8267 110.735 62.4951C111.383 63.1217 111.956 63.781 112.568 64.4393C113.274 55.6595 109.804 46.9948 102.89 40.2698C95.9745 33.545 86.1537 29.2834 75.4937 28.3829L75.6093 28.383Z" fill="#D9D9D9"/>
<path d="M30.2143 68.2559C32.8636 76.7183 39.3819 83.999 48.3914 88.5604C57.4021 93.121 68.1987 94.6049 78.5004 92.6994C77.5996 92.2954 76.7355 91.9218 75.8726 91.4865C67.0626 87.5181 58.6713 82.9403 50.7899 77.8034C60.2438 80.6126 69.3787 84.1097 78.0874 88.2543L80.6407 89.4357L80.6407 89.4367C77.192 81.1886 70.0103 74.3703 60.6099 70.4188C51.2096 66.4673 40.324 65.6923 30.2508 68.2558L30.2143 68.2559Z" fill="#D9D9D9"/>
<path d="M7.06115 117.688C13.3957 124.771 22.7807 129.53 33.239 130.963C43.6956 132.396 54.4106 130.391 63.1253 125.37L60.1086 125.055L60.1098 125.054C50.1022 124.132 40.2113 122.478 30.5495 120.113C40.6266 119.816 50.7173 120.229 60.7114 121.347L63.614 121.662L63.6152 121.662C56.6423 115.017 46.8466 110.888 36.2955 110.147C25.7444 109.406 15.2617 112.11 7.06115 117.688Z" fill="#D9D9D9"/>
<path d="M8.43884 171.35C17.5222 175.839 28.3547 177.233 38.6508 175.238C48.9485 173.241 57.9028 168.012 63.6262 160.652L60.7301 161.461C51.073 163.776 41.1931 165.399 31.1989 166.311C40.3497 162.845 49.8377 160.025 59.5622 157.879L62.3837 157.258C52.9234 153.4 42.0299 152.716 31.9776 155.347C21.9265 157.979 13.4936 163.724 8.43907 171.382L8.43884 171.35Z" fill="#D9D9D9"/>
<path d="M334.809 165.611C328.469 158.534 319.085 153.781 308.629 152.348C298.175 150.915 287.463 152.916 278.745 157.929L281.762 158.212L281.761 158.213C291.762 159.166 301.651 160.819 311.321 163.154C301.244 163.479 291.154 163.077 281.159 161.952L278.257 161.637L278.256 161.637C285.223 168.289 295.02 172.422 305.574 173.164C316.128 173.905 326.613 171.197 334.809 165.611Z" fill="#D9D9D9"/>
<path d="M327.03 85.5215C321.161 83.7494 314.71 83.9785 309.039 86.1594C303.368 88.3414 298.921 92.3034 296.635 97.2119L298.248 96.5128C303.514 94.2169 309 92.304 314.647 90.7945C309.914 93.7361 304.893 96.3301 299.638 98.5473L298.099 99.1823C303.772 100.492 309.817 99.9718 315.062 97.7245C320.94 95.2312 325.358 90.8118 327.293 85.4892L327.03 85.5215Z" fill="#D9D9D9"/>
<path d="M288.319 39.6169C282.175 39.9662 276.426 42.3279 272.264 46.2109C268.103 50.094 265.848 55.2007 265.968 60.4699L267.123 59.3219C270.839 55.4853 274.927 51.922 279.341 48.6724C276.296 52.9751 272.832 57.0495 268.986 60.8539L267.868 61.9698L267.869 61.9698C273.991 61.2394 279.543 58.506 283.356 54.3424C287.17 50.1799 288.949 44.9123 288.319 39.6479L288.319 39.6169Z" fill="#D9D9D9"/>
<path d="M233.187 10.4425C227.309 12.7767 222.836 17.0379 220.82 22.227C218.987 26.9083 219.266 31.9929 221.607 36.5156L222.165 35.1092L222.165 35.1082C223.918 30.4086 226.16 25.8475 228.867 21.4781C227.963 26.355 226.555 31.1563 224.661 35.8284L224.103 37.1728C229.157 34.7182 232.96 30.7916 234.793 26.139C236.797 20.9643 236.231 15.3288 233.224 10.5058L233.187 10.4425Z" fill="#D9D9D9"/>
<path d="M167.873 0.703069C163.698 4.55259 161.492 9.5881 161.718 14.755C161.945 19.9208 164.585 24.8136 169.086 28.4081L169.086 26.9134C168.574 22.0251 168.573 17.1096 169.082 12.2205C170.484 16.9934 171.381 21.8575 171.761 26.759L171.762 28.1908C175.352 24.3167 177.081 19.484 176.62 14.62C176.099 9.19676 172.944 4.17703 167.873 0.703069Z" fill="#D9D9D9"/>
<path d="M101.669 12.9316C99.6633 17.8421 100.011 23.2164 102.641 27.9162C105.269 32.6169 109.971 36.2748 115.753 38.1161L114.933 36.7708C112.165 32.4193 109.846 27.8763 108.003 23.1929C111.513 27.1354 114.616 31.3222 117.278 35.7074L118.06 36.9905C119.48 32.2368 118.79 27.2105 116.121 22.8509C113.157 17.992 107.944 14.371 101.706 12.838L101.669 12.9316Z" fill="#D9D9D9"/>
<path d="M48 43.9275C48.3536 49.126 51.1415 54.0089 55.7738 57.5465C60.4076 61.0829 66.5237 62.9974 72.832 62.885L71.4267 61.9139C66.8338 58.7985 62.5783 55.36 58.7071 51.6363C63.8288 54.2225 68.6808 57.1586 73.2108 60.4115L74.5011 61.3204L74.5011 61.3194C73.6372 56.1667 70.3847 51.4906 65.4273 48.2762C60.4699 45.061 54.1945 43.5584 47.9234 44.0838L48 43.9275Z" fill="#D9D9D9"/>
<path d="M12.5798 91.5918C15.3106 96.2375 20.0994 99.8132 25.9311 101.563C31.7631 103.312 38.1793 103.097 43.8215 100.963L42.1027 100.526C36.4691 99.0847 30.9937 97.2453 25.7336 95.0282C31.5687 95.7582 37.319 96.8975 42.9245 98.4341L44.5315 98.8714L44.5315 98.8724C41.3556 94.4347 36.2469 91.1944 30.2764 89.8316C24.3072 88.4686 17.9384 89.0877 12.5055 91.5603L12.5798 91.5918Z" fill="#D9D9D9"/>
<path d="M0.936626 144.725C5.84364 148.395 12.3087 150.234 18.8514 149.82C24.761 149.398 30.2739 147.147 34.323 143.5L32.5577 143.658L32.5577 143.657C26.6481 144.084 20.7043 144.082 14.7945 143.653C20.5558 142.484 26.4212 141.713 32.332 141.35L34.0594 141.35C29.3545 138.364 23.5201 136.925 17.6462 137.299C11.1082 137.734 5.06874 140.406 0.936586 144.693L0.936626 144.725Z" fill="#D9D9D9"/>
<path d="M14.6523 197.356C20.5638 199.056 27.05 198.822 32.7518 196.703C38.4533 194.583 42.9278 190.745 45.2362 185.99L43.6126 186.699L43.6126 186.698C38.3218 188.929 32.8008 190.774 27.1126 192.211C31.9461 189.373 37.06 186.869 42.4041 184.725L43.9527 184.078L43.9514 184.078C37.8962 182.767 31.4542 183.422 25.9791 185.903C20.5026 188.384 16.4165 192.499 14.578 197.387L14.6523 197.356Z" fill="#D9D9D9"/>
<path d="M329.971 191.687C327.167 187.057 322.275 183.496 316.325 181.75C310.375 180.004 303.829 180.21 298.064 182.325L299.781 182.794C305.554 184.214 311.161 186.052 316.536 188.286C310.578 187.556 304.705 186.417 298.981 184.882C298.423 184.754 297.874 184.598 297.339 184.414C300.569 188.859 305.784 192.106 311.884 193.475C317.985 194.842 324.496 194.224 330.047 191.75L329.971 191.687Z" fill="#D9D9D9"/>
<path d="M340.934 138.586C336.283 135.084 330.203 133.241 323.974 133.445C317.746 133.651 311.856 135.887 307.548 139.684L309.349 139.685C315.252 139.259 321.189 139.26 327.092 139.689C321.326 140.86 315.454 141.62 309.537 141.963L307.811 141.962C312.776 145.127 318.999 146.547 325.177 145.922C331.353 145.299 337.001 142.68 340.934 138.618L340.934 138.586Z" fill="#D9D9D9"/>
<path d="M290.477 143.004C287.089 137.197 281.178 132.725 273.983 130.528C266.789 128.331 258.869 128.577 251.889 131.217L253.983 131.756C260.928 133.555 267.682 135.844 274.174 138.6C266.979 137.709 259.887 136.298 252.975 134.384L250.993 133.845C254.675 139.112 260.519 143.047 267.409 144.898C275.094 146.936 283.423 146.265 290.514 143.037L290.477 143.004Z" fill="#D9D9D9"/>
<path d="M253.632 94.6938C247.727 92.984 241.241 93.2101 235.537 95.3245C229.834 97.4388 225.357 101.278 223.05 106.033L224.674 105.355L224.674 105.356C229.97 103.126 235.489 101.271 241.174 99.8095C236.35 102.66 231.234 105.165 225.882 107.298L224.372 107.945C230.085 109.205 236.167 108.691 241.44 106.5C247.332 104.083 251.762 99.8081 253.708 94.6637L253.632 94.6938Z" fill="#D9D9D9"/>
<path d="M254.225 68.8347C247.896 69.1621 241.971 71.4749 237.684 75.2873C233.398 79.0998 231.086 84.1188 231.228 89.2934L232.378 88.1671C236.25 84.3668 240.52 80.8497 245.141 77.6566C241.942 81.8707 238.314 85.8586 234.296 89.5754L233.184 90.6385C239.159 89.9882 244.624 87.5471 248.517 83.7906C252.848 79.6276 254.921 74.2083 254.263 68.7718L254.225 68.8347Z" fill="#D9D9D9"/>
<path d="M159.967 64.3713C155.615 68.2884 153.318 73.4172 153.561 78.6758C153.804 83.9355 156.568 88.9131 161.27 92.5624L161.27 91.0416C160.755 86.0561 160.754 81.0452 161.266 76.06C162.703 80.9301 163.636 85.8887 164.056 90.8845L164.057 92.3414C167.997 88.1716 169.788 82.9333 169.055 77.7219C168.322 72.5096 165.122 67.7257 160.124 64.3713L159.967 64.3713Z" fill="#D9D9D9"/>
<path d="M171.989 40.5602C167.802 44.4764 165.59 49.6015 165.818 54.8582C166.045 60.1148 168.693 65.0947 173.207 68.7513L173.206 67.2304L173.206 67.2314C172.732 62.2447 172.731 57.2346 173.202 52.2482C174.601 57.1185 175.513 62.0773 175.928 67.0732L175.928 68.5302C179.456 64.622 181.162 59.7681 180.725 54.8794C180.211 49.3587 177.045 44.2485 171.952 40.7177L171.989 40.5602Z" fill="#D9D9D9"/>
<path d="M103.203 96.0595C103.557 101.222 106.34 106.073 110.965 109.588C115.588 113.104 121.695 115.012 127.997 114.908L126.63 113.943C122.017 110.795 117.75 107.324 113.872 103.568C118.993 106.13 123.844 109.038 128.376 112.261C128.832 112.604 129.25 112.915 129.704 113.196L129.706 113.196C128.859 108.066 125.611 103.406 120.649 100.207C115.687 97.0074 109.402 95.5193 103.128 96.0591L103.203 96.0595Z" fill="#D9D9D9"/>
<path d="M141.314 111.511C137.15 115.361 134.95 120.396 135.175 125.563C135.402 130.729 138.035 135.622 142.524 139.216L142.524 137.722C142.053 132.821 142.052 127.899 142.52 122.998C143.93 127.781 144.837 132.655 145.231 137.567L145.231 138.999C148.812 135.125 150.537 130.292 150.077 125.428C149.547 119.993 146.37 114.969 141.277 111.511L141.314 111.511Z" fill="#D9D9D9"/>
<path d="M194.146 87.7112C188.825 90.5241 185.023 94.936 183.536 100.024C182.05 105.111 182.996 110.48 186.175 115.005L186.516 113.523C187.615 108.636 189.229 103.838 191.338 99.183C191.129 104.163 190.405 109.12 189.176 113.997C189.176 114.47 188.949 114.911 188.835 115.415L188.834 115.415C193.558 112.405 196.819 108.089 198.026 103.251C199.352 97.8688 197.979 92.2694 194.222 87.7429L194.146 87.7112Z" fill="#D9D9D9"/>
<path d="M41.5463 213.553C47.7616 212.617 53.3013 209.682 56.9932 205.369C60.6864 201.056 62.2449 195.701 61.3391 190.437L60.3548 191.712C57.131 195.933 53.4983 199.921 49.4942 203.637C51.9143 199.04 54.8139 194.632 58.1595 190.468L59.1056 189.257L59.1056 189.256C53.0443 190.616 47.8486 193.907 44.6154 198.434C41.3819 202.962 40.3632 208.372 41.7742 213.521L41.5463 213.553Z" fill="#D9D9D9"/>
<path d="M303.626 217.025C297.431 216.091 291.918 213.208 288.252 208.984C284.587 204.761 283.054 199.526 283.98 194.39L284.965 195.639L284.965 195.638C288.19 199.771 291.823 203.676 295.828 207.316C293.406 202.815 290.505 198.5 287.159 194.422L286.212 193.204C292.27 194.553 297.46 197.784 300.692 202.22C303.926 206.656 304.949 211.95 303.55 216.994L303.626 217.025Z" fill="#D9D9D9"/>
<path d="M40.4931 142.339C45.1331 145.815 51.2097 147.646 57.4339 147.442C63.6591 147.24 69.5443 145.018 73.8416 141.249L72.0404 141.248C66.1485 141.654 60.2262 141.653 54.3341 141.244C60.0817 140.054 65.9441 139.289 71.8516 138.959L73.5404 138.96C68.6098 135.803 62.4088 134.365 56.2397 134.948C50.0709 135.532 44.4128 138.091 40.4551 142.088L40.4931 142.339Z" fill="#D9D9D9"/>
<path d="M286.543 187.373C280.047 186.393 274.319 183.247 270.693 178.668C267.423 174.542 266.081 169.567 266.916 164.679C267.218 165.117 267.557 165.524 267.86 165.931L267.86 165.93C271.069 170.087 274.706 174.003 278.73 177.638C276.329 173.142 273.462 168.827 270.161 164.742L269.179 163.553L269.18 163.553C275.229 164.884 280.418 168.114 283.651 172.558C286.885 177.003 287.908 182.316 286.505 187.374L286.543 187.373Z" fill="#D9D9D9"/>
<path d="M52.731 184.359C58.9055 184.671 64.9813 182.945 69.6811 179.543C74.3821 176.14 77.3405 171.328 77.9364 166.116L76.6316 167.126C72.3654 170.544 67.7625 173.649 62.872 176.404C66.5081 172.478 70.5244 168.814 74.8783 165.452L76.1455 164.474L76.1467 164.473C69.9673 164.592 64.0812 166.728 59.719 170.433C55.3556 174.138 52.852 179.126 52.731 184.359Z" fill="#D9D9D9"/>
<path d="M86.0855 66.7815C86.4693 71.8662 89.2758 76.6341 93.9138 80.0793C98.5531 83.5244 104.662 85.379 110.953 85.2514L109.546 84.3275C104.948 81.2111 100.686 77.7809 96.808 74.0777C101.942 76.7055 106.8 79.6709 111.333 82.9437C111.789 83.2513 112.208 83.59 112.663 83.8676C111.828 79.0813 108.866 74.7049 104.335 71.5565C99.2863 68.0622 92.6913 66.3926 86.0855 66.9359L86.0855 66.7815Z" fill="#D9D9D9"/>
<path d="M190.414 123.19C185.553 125.809 182.087 129.918 180.746 134.652C179.403 139.387 180.289 144.376 183.217 148.572C183.216 148.133 183.216 147.694 183.55 147.193C184.54 142.643 186.005 138.175 187.928 133.844C187.727 138.48 187.058 143.093 185.928 147.632C185.928 148.071 185.705 148.509 185.631 148.948L185.631 148.949C190.219 146.011 193.281 141.688 194.172 136.885C195.064 132.082 193.718 127.174 190.414 123.19Z" fill="#D9D9D9"/>
<path d="M117.031 360.198L104.503 393.558H98.167L85.591 360.198H91.447L101.335 387.942L111.271 360.198H117.031ZM121.991 363.606C120.999 363.606 120.167 363.27 119.495 362.598C118.823 361.926 118.487 361.094 118.487 360.102C118.487 359.11 118.823 358.278 119.495 357.606C120.167 356.934 120.999 356.598 121.991 356.598C122.951 356.598 123.767 356.934 124.439 357.606C125.111 358.278 125.447 359.11 125.447 360.102C125.447 361.094 125.111 361.926 124.439 362.598C123.767 363.27 122.951 363.606 121.991 363.606ZM124.679 367.11V393.558H119.207V367.11H124.679ZM142.807 366.678C144.887 366.678 146.743 367.11 148.375 367.974C150.039 368.838 151.335 370.118 152.263 371.814C153.191 373.51 153.655 375.558 153.655 377.958V393.558H148.231V378.774C148.231 376.406 147.639 374.598 146.455 373.35C145.271 372.07 143.655 371.43 141.607 371.43C139.559 371.43 137.927 372.07 136.711 373.35C135.527 374.598 134.935 376.406 134.935 378.774V393.558H129.463V367.11H134.935V370.134C135.831 369.046 136.967 368.198 138.343 367.59C139.751 366.982 141.239 366.678 142.807 366.678ZM163.707 358.038V393.558H158.235V358.038H163.707ZM166.668 380.214C166.668 377.558 167.212 375.206 168.3 373.158C169.42 371.11 170.924 369.526 172.812 368.406C174.732 367.254 176.844 366.678 179.148 366.678C181.228 366.678 183.036 367.094 184.572 367.926C186.14 368.726 187.388 369.734 188.316 370.95V367.11H193.836V393.558H188.316V389.622C187.388 390.87 186.124 391.91 184.524 392.742C182.924 393.574 181.1 393.99 179.052 393.99C176.78 393.99 174.7 393.414 172.812 392.262C170.924 391.078 169.42 389.446 168.3 387.366C167.212 385.254 166.668 382.87 166.668 380.214ZM188.316 380.31C188.316 378.486 187.932 376.902 187.164 375.558C186.428 374.214 185.452 373.19 184.236 372.486C183.02 371.782 181.708 371.43 180.3 371.43C178.892 371.43 177.58 371.782 176.364 372.486C175.148 373.158 174.156 374.166 173.388 375.51C172.652 376.822 172.284 378.39 172.284 380.214C172.284 382.038 172.652 383.638 173.388 385.014C174.156 386.39 175.148 387.446 176.364 388.182C177.612 388.886 178.924 389.238 180.3 389.238C181.708 389.238 183.02 388.886 184.236 388.182C185.452 387.478 186.428 386.454 187.164 385.11C187.932 383.734 188.316 382.134 188.316 380.31ZM211.967 366.678C214.047 366.678 215.903 367.11 217.535 367.974C219.199 368.838 220.495 370.118 221.423 371.814C222.351 373.51 222.815 375.558 222.815 377.958V393.558H217.391V378.774C217.391 376.406 216.799 374.598 215.615 373.35C214.431 372.07 212.815 371.43 210.767 371.43C208.719 371.43 207.087 372.07 205.871 373.35C204.687 374.598 204.095 376.406 204.095 378.774V393.558H198.623V367.11H204.095V370.134C204.991 369.046 206.127 368.198 207.503 367.59C208.911 366.982 210.399 366.678 211.967 366.678ZM225.571 380.214C225.571 377.558 226.115 375.206 227.203 373.158C228.323 371.11 229.827 369.526 231.715 368.406C233.635 367.254 235.763 366.678 238.099 366.678C239.827 366.678 241.523 367.062 243.187 367.83C244.883 368.566 246.227 369.558 247.219 370.806V358.038H252.739V393.558H247.219V389.574C246.323 390.854 245.075 391.91 243.475 392.742C241.907 393.574 240.099 393.99 238.051 393.99C235.747 393.99 233.635 393.414 231.715 392.262C229.827 391.078 228.323 389.446 227.203 387.366C226.115 385.254 225.571 382.87 225.571 380.214ZM247.219 380.31C247.219 378.486 246.835 376.902 246.067 375.558C245.331 374.214 244.355 373.19 243.139 372.486C241.923 371.782 240.611 371.43 239.203 371.43C237.795 371.43 236.483 371.782 235.267 372.486C234.051 373.158 233.059 374.166 232.291 375.51C231.555 376.822 231.187 378.39 231.187 380.214C231.187 382.038 231.555 383.638 232.291 385.014C233.059 386.39 234.051 387.446 235.267 388.182C236.515 388.886 237.827 389.238 239.203 389.238C240.611 389.238 241.923 388.886 243.139 388.182C244.355 387.478 245.331 386.454 246.067 385.11C246.835 383.734 247.219 382.134 247.219 380.31Z" fill="#9BA7BF"/>
</svg>
